<?xml version="1.0" encoding="utf-8"?>
<!-- Generator: Adobe Illustrator 19.2.1, SVG Export Plug-In . SVG Version: 6.00 Build 0)  -->
<!DOCTYPE svg PUBLIC "-//W3C//DTD SVG 1.1//EN" "http://www.w3.org/Graphics/SVG/1.1/DTD/svg11.dtd">
<svg version="1.1" id="Layer_1" xmlns="http://www.w3.org/2000/svg" xmlns:xlink="http://www.w3.org/1999/xlink" x="0px" y="0px"
	 viewBox="0 0 28.7 28.8" enable-background="new 0 0 28.7 28.8" xml:space="preserve">
<g>
	<path fill="#F8D301" d="M15.3,25.6C7.5,25.3,1.5,18.8,1.8,11.1c0.2-3.7,1.8-7,4.3-9.4L5.4,1.1C2.7,3.9,0.9,7.7,0.7,11.9
		c-0.4,8.9,6.3,16.4,14.9,16.7c5,0.2,9.6-2.1,12.6-5.8l-2-1.9C23.6,24,19.6,25.8,15.3,25.6z"/>
</g>
<g>
	<path fill="#F8D301" d="M15.1,11.7L3.8,14.8c0.9,3.8,3.5,7,7.1,8.4L15.1,11.7z"/>
	<path fill="#F8D301" d="M15.2,10.4L7.5,3.1c-2.4,2.1-3.9,5.1-4,8.5c0,0.7,0,1.4,0.1,2L15.2,10.4z"/>
	<path fill="#F8D301" d="M16.4,11.5l-4.4,12c0.9,0.3,1.9,0.5,3,0.5c4,0.2,7.6-1.6,9.9-4.5L16.4,11.5z"/>
</g>
<path fill="#F8D301" d="M24.9,4.5c-0.2-0.4-0.6-0.6-0.9-0.8c-1.1-0.5-2.4,0-2.8,1.1L20.6,6l-0.2,0.5l-0.5,1.3l1.4,0l0.3,0l1.7,0
	c1.1,0,2.1-0.9,2-2C25.3,5.3,25.2,4.9,24.9,4.5z"/>
<path fill="#F8D301" d="M18.6,5.7c-0.2-0.2-0.5-0.3-0.8-0.3c-0.8-0.1-1.6,0.6-1.6,1.5l0,1l0,0.4l0,1L17,9l0.2-0.1l1.1-0.5
	c0.8-0.3,1.2-1.2,0.9-1.9C19.1,6.2,18.9,5.9,18.6,5.7z"/>
<path fill="#F8D301" d="M20.7,10c0-0.2-0.1-0.4-0.3-0.5c-0.4-0.4-1.3-0.4-1.8,0L18,10l-0.2,0.2l-0.6,0.5l0.8,0.3l0.1,0l0.9,0.3
	c0.6,0.2,1.4,0,1.6-0.5C20.6,10.5,20.7,10.3,20.7,10z"/>
<path fill="#F8D301" d="M24.2,10c0.1-0.2,0.1-0.5,0.1-0.7c-0.1-0.7-0.8-1.1-1.5-1l-0.8,0.2l-0.3,0.1l-0.8,0.2l0.5,0.7l0.1,0.1
	l0.6,0.8c0.4,0.5,1.2,0.7,1.7,0.3C23.9,10.5,24,10.3,24.2,10z"/>
</svg>
